# xmcd
#
# Track frame offsets: 
#        150
#        14165
#        26906
#        41067
#        54207
#        65902
#        77815
#        90439
#        105552
#        116378
#        128043
#        137825
#        151376
#        163100
#        175605
#        187126
#        200238
#        217187
#        234537
#        253658
#
# Disc length: 3595 seconds
#
# Revision: 0
# Processed by: cddbd v1.5.2PL0 Copyright (c) Steve Scherf et al.
# Submitted via: ExactAudioCopy v0.99pb4
#
DISCID=260e0914
DTITLE=Slim Harpo - Slim Harpo
DYEAR=2000
DGENRE=Blues
TTITLE0=I'm a king Bee
TTITLE1=I got love if you want it
TTITLE2=Blues hangover
TTITLE3=My home in a prison
TTITLE4=Rainin in heart
TTITLE5=Little Queen Bee
TTITLE6=What's goin on baby
TTITLE7=Sittin' here wondering
TTITLE8=I'm gonna miss you
TTITLE9=Baby scratch my back
TTITLE10=Midnight blues
TTITLE11=Lovin' you
TTITLE12=The music's hot
TTITLE13=Mailbox blues
TTITLE14=Mohair Sam
TTITLE15=Hey little Lee
TTITLE16=Jody man
TTITLE17=You can't make it
TTITLE18=The Hippy song
TTITLE19=Baby please come home
EXTD=
EXTT0=
EXTT1=
EXTT2=
EXTT3=
EXTT4=
EXTT5=
EXTT6=
EXTT7=
EXTT8=
EXTT9=
EXTT10=
EXTT11=
EXTT12=
EXTT13=
EXTT14=
EXTT15=
EXTT16=
EXTT17=
EXTT18=
EXTT19=
PLAYORDER=
